# File produced by Open Asset Import Library (http://www.assimp.sf.net)
# (assimp v3.1.95221606)

mtllib picnicBlanket.mtl

# vertex positions
v -385.000000 -1.442516 595.000061
v -560.925964 -1.637682 594.571777
v -561.087952 -5.999904 598.171265
v -385.000000 -5.999904 598.750000
v -592.500061 -2.581863 592.500061
v -594.143555 -5.999904 594.143494
v -592.500061 -9.417945 592.500061
v -560.925964 -10.362125 594.571777
v -385.000031 -10.557291 595.000000
v -595.000000 -1.442676 -385.000000
v -594.571777 -1.637870 -560.925964
v -598.171265 -6.000093 -561.087952
v -598.750000 -6.000063 -385.000000
v -592.500061 -2.582056 -592.500061
v -594.143494 -6.000098 -594.143555
v -592.500061 -9.418139 -592.500061
v -594.571777 -10.362314 -560.925964
v -595.000000 -10.557450 -385.000031
v 385.000031 0.836018 -385.000000
v 561.250000 0.551181 -385.000000
v 561.169006 0.276865 -561.169006
v 385.000000 0.551153 -561.250000
v 595.000000 -1.442676 -385.000031
v 594.571777 -1.637870 -560.925964
v 592.500061 -2.582056 -592.500061
v 560.925964 -1.637876 -594.571777
v 385.000031 -1.442710 -595.000000
v -560.925903 -1.637876 -594.571838
v -561.087952 -6.000099 -598.171265
v -385.000000 -1.442710 -595.000061
v -385.000000 -6.000099 -598.750000
v -385.000000 -10.557484 -595.000000
v -560.925903 -10.362319 -594.571777
v -594.571777 -10.362131 560.925903
v -561.168945 -12.276866 561.169006
v -595.000000 -10.557324 385.000000
v -561.249939 -12.551182 385.000000
v -385.000000 -12.836020 385.000000
v -385.000031 -12.551153 561.250000
v 595.000061 -1.442551 385.000000
v 594.571777 -1.637688 560.925964
v 598.171265 -5.999910 561.087952
v 598.750000 -5.999938 385.000000
v 592.500061 -2.581863 592.500061
v 594.143494 -5.999904 594.143555
v 592.500061 -9.417945 592.500061
v 594.571777 -10.362131 560.925964
v 595.000000 -10.557325 385.000031
v 561.087952 -6.000099 -598.171265
v 385.000000 -6.000099 -598.750000
v 594.143555 -6.000098 -594.143494
v 592.500061 -9.418139 -592.500061
v 560.925964 -10.362319 -594.571777
v 385.000031 -10.557486 -595.000000
v 385.000000 -12.551336 -561.250000
v -0.000001 -12.551336 -561.250000
v -0.000003 -10.557486 -595.000061
v 385.000000 -12.836143 -385.000000
v -0.000005 -12.836143 -385.000000
v -385.000000 -12.836143 -385.000000
v -385.000000 -12.551336 -561.250000
v -0.000000 0.551153 -561.250061
v 0.000007 0.836018 -385.000000
v 0.000003 -1.442710 -595.000061
v -385.000000 0.551153 -561.250000
v -385.000000 0.836018 -385.000000
v 385.000000 -1.442516 595.000000
v 560.925964 -1.637682 594.571777
v 561.169006 0.277049 561.169006
v 385.000031 0.551336 561.249939
v 561.250000 0.551307 385.000000
v 385.000000 0.836143 385.000031
v -0.000000 -6.000099 -598.750000
v 0.000000 -5.999904 598.750000
v 0.000000 -1.442516 595.000061
v -0.000005 -10.557291 595.000061
v 385.000031 -10.557289 595.000000
v 385.000000 -5.999904 598.750000
v 0.000005 0.551335 561.250000
v -0.000012 0.836143 385.000000
v -385.000000 0.836143 385.000000
v -385.000000 0.551336 561.250000
v 561.087952 -5.999904 598.171265
v 560.925903 -10.362125 594.571777
v 385.000000 -12.836020 385.000031
v 384.999969 -12.551153 561.250000
v -0.000000 -12.551153 561.250000
v 0.000011 -12.836020 385.000031
v -561.169006 0.277049 561.168945
v -594.571716 -1.637688 560.925903
v -561.250000 0.551307 385.000031
v -595.000000 -1.442550 385.000031
v -561.250000 0.551181 -385.000000
v -561.169006 0.276865 -561.168945
v 561.168945 -12.277050 -561.169006
v 561.250000 -12.551308 -385.000000
v 594.571777 -10.362314 -560.925964
v 595.000000 -10.557449 -385.000031
v 561.168945 -12.276867 561.169006
v 561.250000 -12.551182 385.000000
v -561.169006 -12.277050 -561.169006
v -561.249939 -12.551307 -385.000000
v -598.171265 -5.999910 561.087952
v -598.750000 -5.999938 385.000000
v -561.250061 0.551244 0.000005
v -385.000031 0.836081 0.000008
v -595.000061 -1.442613 0.000008
v 561.250000 0.551244 0.000000
v 595.000061 -1.442613 0.000000
v 385.000000 0.836081 0.000012
v -0.000006 -12.836082 -0.000003
v 385.000031 -12.836082 -0.000006
v -385.000031 -12.836082 -0.000006
v -0.000006 0.836081 0.000005
v 561.250000 -12.551245 0.000002
v 595.000061 -10.557388 -0.000004
v 598.750000 -6.000001 0.000001
v 598.750000 -6.000063 -385.000000
v -598.750000 -6.000001 0.000001
v -595.000061 -10.557388 -0.000001
v -561.250000 -12.551245 0.000001
v 598.171265 -6.000093 -561.087952

# UV coordinates
vt 0.000002 0.585841
vt 0.000105 0.511937
vt 0.002481 0.511960
vt 0.002481 0.585843
vt 0.000830 0.498557
vt 0.002481 0.498557
vt 0.004132 0.498557
vt 0.004857 0.511937
vt 0.004960 0.585841
vt 0.000002 0.087873
vt 0.000104 0.013994
vt 0.002479 0.014015
vt 0.002480 0.087875
vt 0.000808 0.000619
vt 0.002479 -0.000000
vt 0.004151 0.000619
vt 0.004855 0.013994
vt 0.004958 0.087873
vt 0.421659 0.411749
vt 0.495707 0.411753
vt 0.495647 0.485743
vt 0.421657 0.485797
vt 0.509909 0.411757
vt 0.509700 0.485656
vt 0.508835 0.498932
vt 0.495559 0.499797
vt 0.421660 0.499999
vt 0.005768 0.996662
vt 0.005064 0.983278
vt 0.007441 0.983257
vt 0.007441 0.997282
vt 0.004962 0.909350
vt 0.007442 0.909347
vt 0.009922 0.909350
vt 0.009818 0.983278
vt 0.009114 0.996662
vt 0.010990 0.998911
vt 0.010126 0.985635
vt 0.024179 0.985723
vt 0.024266 0.999776
vt 0.009923 0.911735
vt 0.024126 0.911732
vt 0.098174 0.911734
vt 0.098169 0.985783
vt 0.098165 0.999985
vt 0.004964 0.087873
vt 0.005066 0.013994
vt 0.007442 0.014016
vt 0.007442 0.087875
vt 0.005770 0.000620
vt 0.007442 0.000000
vt 0.009113 0.000619
vt 0.009817 0.013994
vt 0.009920 0.087873
vt 0.004964 0.585840
vt 0.005067 0.511936
vt 0.007443 0.511960
vt 0.007443 0.585843
vt 0.005792 0.498556
vt 0.007443 0.498556
vt 0.009094 0.498556
vt 0.009819 0.511936
vt 0.009922 0.585840
vt 0.421680 0.500014
vt 0.421676 0.514216
vt 0.259933 0.514204
vt 0.259934 0.500000
vt 0.421672 0.588265
vt 0.259930 0.588252
vt 0.098188 0.588251
vt 0.098190 0.514203
vt 0.098187 0.500001
vt 0.259913 0.485796
vt 0.259916 0.411747
vt 0.259913 0.500000
vt 0.098166 0.499985
vt 0.098170 0.485783
vt 0.098174 0.411735
vt 0.421681 0.000015
vt 0.495580 0.000224
vt 0.495667 0.014277
vt 0.421677 0.014217
vt 0.508856 0.001089
vt 0.509720 0.014365
vt 0.509923 0.088265
vt 0.495720 0.088267
vt 0.421672 0.088265
vt 0.007442 0.747568
vt 0.004962 0.747568
vt 0.009923 0.747568
vt 0.002480 0.747569
vt -0.000000 0.747569
vt 0.004962 0.747569
vt 0.004960 0.909351
vt 0.002480 0.909348
vt 0.000000 0.909351
vt 0.259934 0.014204
vt 0.259935 0.000000
vt 0.259931 0.088253
vt 0.098189 0.088251
vt 0.098191 0.014202
vt 0.098188 0.000000
vt 0.000807 0.996663
vt 0.000102 0.983280
vt 0.002479 0.983258
vt 0.002479 0.997283
vt 0.004857 0.983280
vt 0.004152 0.996663
vt 0.421659 0.911749
vt 0.421657 0.985797
vt 0.259913 0.985796
vt 0.259916 0.911747
vt 0.421660 0.999999
vt 0.259913 1.000000
vt 0.011012 0.001067
vt 0.024288 0.000202
vt 0.024200 0.014256
vt 0.010147 0.014343
vt 0.024140 0.088246
vt 0.009938 0.088242
vt 0.009924 0.411736
vt 0.024126 0.411733
vt 0.024180 0.485723
vt 0.010126 0.485635
vt 0.024267 0.499777
vt 0.010991 0.498911
vt 0.495666 0.514276
vt 0.495720 0.588266
vt 0.495579 0.500223
vt 0.508855 0.501088
vt 0.509719 0.514364
vt 0.509922 0.588264
vt 0.495647 0.985743
vt 0.495559 0.999796
vt 0.495707 0.911753
vt 0.509909 0.911757
vt 0.509700 0.985656
vt 0.508835 0.998932
vt 0.009938 0.588242
vt 0.010147 0.514343
vt 0.024200 0.514257
vt 0.024140 0.588246
vt 0.011012 0.501068
vt 0.024288 0.500203
vt 0.000105 0.485177
vt 0.002481 0.485153
vt 0.000002 0.411273
vt 0.002481 0.411271
vt 0.004960 0.411273
vt 0.004857 0.485177
vt 0.024127 0.249990
vt 0.098176 0.249993
vt 0.009923 0.249989
vt 0.495719 0.250010
vt 0.509923 0.250011
vt 0.421671 0.250007
vt 0.259923 0.750000
vt 0.421670 0.750007
vt 0.098176 0.749993
vt 0.259923 0.250000
vt 0.495719 0.750009
vt 0.509923 0.750010
vt 0.007443 0.249546
vt 0.004963 0.249546
vt 0.009923 0.249546
vt 0.009922 0.411273
vt 0.007443 0.411270
vt 0.004964 0.411273
vt 0.002480 0.249547
vt 0.000001 0.249547
vt 0.004961 0.249547
vt 0.024127 0.749989
vt 0.009923 0.749989
vt 0.005067 0.485176
vt 0.007443 0.485153
vt 0.009819 0.485176

# vertex normals
vn -0.001084 0.891357 0.453301
vn -0.036775 0.880851 0.471963
vn -0.054941 -0.000004 0.998490
vn -0.001657 -0.000003 0.999999
vn -0.391983 0.832283 0.391987
vn -0.707108 0.000002 0.707106
vn -0.391984 -0.832282 0.391988
vn -0.036775 -0.880853 0.471960
vn -0.001084 -0.891358 0.453299
vn -0.453299 0.891358 -0.001085
vn -0.471962 0.880852 -0.036775
vn -0.998490 0.000001 -0.054941
vn -0.999999 0.000001 -0.001657
vn -0.391987 0.832283 -0.391983
vn -0.707105 -0.000002 -0.707109
vn -0.391986 -0.832284 -0.391982
vn -0.471963 -0.880851 -0.036775
vn -0.453301 -0.891357 -0.001084
vn 0.000801 0.999999 -0.000801
vn 0.030088 0.999547 -0.000751
vn 0.026701 0.999287 -0.026701
vn 0.000751 0.999547 -0.030088
vn 0.453301 0.891357 -0.001085
vn 0.471962 0.880852 -0.036774
vn 0.391985 0.832282 -0.391988
vn 0.036775 0.880853 -0.471960
vn 0.001084 0.891358 -0.453299
vn -0.036774 0.880852 -0.471962
vn -0.054942 -0.000005 -0.998490
vn -0.001084 0.891356 -0.453302
vn -0.001657 -0.000005 -0.999999
vn -0.001084 -0.891359 -0.453297
vn -0.036774 -0.880854 -0.471957
vn -0.471961 -0.880852 0.036775
vn -0.026701 -0.999287 0.026701
vn -0.453299 -0.891358 0.001085
vn -0.030088 -0.999547 0.000751
vn -0.000801 -0.999999 0.000801
vn -0.000751 -0.999547 0.030088
vn 0.453302 0.891356 0.001084
vn 0.471963 0.880851 0.036774
vn 0.998490 -0.000001 0.054942
vn 0.999999 -0.000002 0.001657
vn 0.391986 0.832285 0.391981
vn 0.707105 0.000000 0.707108
vn 0.391986 -0.832284 0.391982
vn 0.471963 -0.880851 0.036775
vn 0.453301 -0.891357 0.001085
vn 0.054942 -0.000000 -0.998490
vn 0.001657 -0.000001 -0.999999
vn 0.707109 -0.000000 -0.707105
vn 0.391984 -0.832282 -0.391988
vn 0.036775 -0.880853 -0.471960
vn 0.001084 -0.891358 -0.453298
vn 0.000751 -0.999547 -0.030088
vn -0.000000 -0.999541 -0.030308
vn 0.000000 -0.891275 -0.453464
vn 0.000801 -0.999999 -0.000801
vn 0.000000 -1.000000 -0.000808
vn -0.000801 -0.999999 -0.000801
vn -0.000751 -0.999547 -0.030088
vn 0.000000 0.999541 -0.030308
vn -0.000000 1.000000 -0.000808
vn 0.000000 0.891274 -0.453465
vn -0.000751 0.999547 -0.030088
vn -0.000801 0.999999 -0.000801
vn 0.001084 0.891358 0.453298
vn 0.036774 0.880853 0.471959
vn 0.026701 0.999287 0.026700
vn 0.000751 0.999547 0.030088
vn 0.030088 0.999547 0.000751
vn 0.000801 0.999999 0.000801
vn 0.000000 -0.000002 -1.000000
vn 0.000000 0.000002 1.000000
vn 0.000000 0.891275 0.453464
vn 0.000000 -0.891274 0.453466
vn 0.001084 -0.891358 0.453299
vn 0.001657 0.000000 0.999999
vn 0.000000 0.999541 0.030308
vn 0.000000 1.000000 0.000808
vn -0.000801 0.999999 0.000801
vn -0.000751 0.999547 0.030088
vn 0.054941 -0.000002 0.998490
vn 0.036774 -0.880854 0.471957
vn 0.000801 -0.999999 0.000801
vn 0.000751 -0.999547 0.030088
vn -0.000000 -0.999541 0.030308
vn -0.000000 -1.000000 0.000808
vn -0.026701 0.999287 0.026700
vn -0.471960 0.880853 0.036774
vn -0.030088 0.999547 0.000751
vn -0.453300 0.891357 0.001084
vn -0.030088 0.999547 -0.000751
vn -0.026701 0.999287 -0.026701
vn 0.026701 -0.999287 -0.026700
vn 0.030088 -0.999547 -0.000751
vn 0.471962 -0.880852 -0.036775
vn 0.453301 -0.891357 -0.001084
vn 0.026701 -0.999287 0.026701
vn 0.030088 -0.999547 0.000751
vn -0.026701 -0.999287 -0.026700
vn -0.030088 -0.999547 -0.000751
vn -0.998489 0.000001 0.054942
vn -0.999999 -0.000001 0.001657
vn -0.030308 0.999541 -0.000000
vn -0.000808 1.000000 -0.000000
vn -0.453463 0.891275 -0.000000
vn 0.030308 0.999541 -0.000000
vn 0.453465 0.891274 -0.000000
vn 0.000808 1.000000 -0.000000
vn -0.000000 -1.000000 0.000000
vn 0.000808 -1.000000 0.000000
vn -0.000808 -1.000000 0.000000
vn -0.000000 1.000000 -0.000000
vn 0.030308 -0.999541 0.000000
vn 0.453464 -0.891275 0.000000
vn 1.000000 -0.000001 -0.000000
vn 0.999999 -0.000000 -0.001657
vn -1.000000 -0.000000 0.000000
vn -0.453463 -0.891275 0.000000
vn -0.030308 -0.999541 0.000000
vn 0.998490 0.000000 -0.054942

# Mesh
g picnicBlanket_low
usemtl picnicBlanket
f 4/4/4 1/1/1 2/2/2
f 2/2/2 3/3/3 4/4/4
f 3/3/3 2/2/2 5/5/5
f 5/5/5 6/6/6 3/3/3
f 8/8/8 3/3/3 6/6/6
f 6/6/6 7/7/7 8/8/8
f 9/9/9 4/4/4 3/3/3
f 3/3/3 8/8/8 9/9/9
f 13/13/13 10/10/10 11/11/11
f 11/11/11 12/12/12 13/13/13
f 12/12/12 11/11/11 14/14/14
f 14/14/14 15/15/15 12/12/12
f 17/17/17 12/12/12 15/15/15
f 15/15/15 16/16/16 17/17/17
f 18/18/18 13/13/13 12/12/12
f 12/12/12 17/17/17 18/18/18
f 22/22/22 19/19/19 20/20/20
f 20/20/20 21/21/21 22/22/22
f 21/21/21 20/20/20 23/23/23
f 23/23/23 24/24/24 21/21/21
f 26/26/26 21/21/21 24/24/24
f 24/24/24 25/25/25 26/26/26
f 27/27/27 22/22/22 21/21/21
f 21/21/21 26/26/26 27/27/27
f 15/31/15 14/28/14 28/29/28
f 28/29/28 29/30/29 15/31/15
f 29/30/29 28/29/28 30/32/30
f 30/32/30 31/33/31 29/30/29
f 33/35/33 29/30/29 31/33/31
f 31/33/31 32/34/32 33/35/33
f 16/36/16 15/31/15 29/30/29
f 29/30/29 33/35/33 16/36/16
f 8/40/8 7/37/7 34/38/34
f 34/38/34 35/39/35 8/40/8
f 35/39/35 34/38/34 36/41/36
f 36/41/36 37/42/37 35/39/35
f 39/44/39 35/39/35 37/42/37
f 37/42/37 38/43/38 39/44/39
f 9/45/9 8/40/8 35/39/35
f 35/39/35 39/44/39 9/45/9
f 43/49/43 40/46/40 41/47/41
f 41/47/41 42/48/42 43/49/43
f 42/48/42 41/47/41 44/50/44
f 44/50/44 45/51/45 42/48/42
f 47/53/47 42/48/42 45/51/45
f 45/51/45 46/52/46 47/53/47
f 48/54/48 43/49/43 42/48/42
f 42/48/42 47/53/47 48/54/48
f 50/58/50 27/55/27 26/56/26
f 26/56/26 49/57/49 50/58/50
f 49/57/49 26/56/26 25/59/25
f 25/59/25 51/60/51 49/57/49
f 53/62/53 49/57/49 51/60/51
f 51/60/51 52/61/52 53/62/53
f 54/63/54 50/58/50 49/57/49
f 49/57/49 53/62/53 54/63/54
f 57/67/57 54/64/54 55/65/55
f 55/65/55 56/66/56 57/67/57
f 56/66/56 55/65/55 58/68/58
f 58/68/58 59/69/59 56/66/56
f 61/71/61 56/66/56 59/69/59
f 59/69/59 60/70/60 61/71/61
f 32/72/32 57/67/57 56/66/56
f 56/66/56 61/71/61 32/72/32
f 63/74/63 19/19/19 22/22/22
f 22/22/22 62/73/62 63/74/63
f 62/73/62 22/22/22 27/27/27
f 27/27/27 64/75/64 62/73/62
f 65/77/65 62/73/62 64/75/64
f 64/75/64 30/76/30 65/77/65
f 66/78/66 63/74/63 62/73/62
f 62/73/62 65/77/65 66/78/66
f 70/82/70 67/79/67 68/80/68
f 68/80/68 69/81/69 70/82/70
f 69/81/69 68/80/68 44/83/44
f 44/83/44 41/84/41 69/81/69
f 71/86/71 69/81/69 41/84/41
f 41/84/41 40/85/40 71/86/71
f 72/87/72 70/82/70 69/81/69
f 69/81/69 71/86/71 72/87/72
f 64/89/64 27/55/27 50/58/50
f 50/58/50 73/88/73 64/89/64
f 73/88/73 50/58/50 54/63/54
f 54/63/54 57/90/57 73/88/73
f 31/33/31 73/88/73 57/90/57
f 57/90/57 32/34/32 31/33/31
f 30/32/30 64/89/64 73/88/73
f 73/88/73 31/33/31 30/32/30
f 75/92/75 1/1/1 4/4/4
f 4/4/4 74/91/74 75/92/75
f 74/91/74 4/4/4 9/9/9
f 9/9/9 76/93/76 74/91/74
f 78/95/78 74/91/74 76/93/76
f 76/93/76 77/94/77 78/95/78
f 67/96/67 75/92/75 74/91/74
f 74/91/74 78/95/78 67/96/67
f 75/98/75 67/79/67 70/82/70
f 70/82/70 79/97/79 75/98/75
f 79/97/79 70/82/70 72/87/72
f 72/87/72 80/99/80 79/97/79
f 82/101/82 79/97/79 80/99/80
f 80/99/80 81/100/81 82/101/82
f 1/102/1 75/98/75 79/97/79
f 79/97/79 82/101/82 1/102/1
f 45/106/45 44/103/44 68/104/68
f 68/104/68 83/105/83 45/106/45
f 83/105/83 68/104/68 67/96/67
f 67/96/67 78/95/78 83/105/83
f 84/107/84 83/105/83 78/95/78
f 78/95/78 77/94/77 84/107/84
f 46/108/46 45/106/45 83/105/83
f 83/105/83 84/107/84 46/108/46
f 88/112/88 85/109/85 86/110/86
f 86/110/86 87/111/87 88/112/88
f 87/111/87 86/110/86 77/113/77
f 77/113/77 76/114/76 87/111/87
f 39/44/39 87/111/87 76/114/76
f 76/114/76 9/45/9 39/44/39
f 38/43/38 88/112/88 87/111/87
f 87/111/87 39/44/39 38/43/38
f 90/118/90 5/115/5 2/116/2
f 2/116/2 89/117/89 90/118/90
f 89/117/89 2/116/2 1/102/1
f 1/102/1 82/101/82 89/117/89
f 91/119/91 89/117/89 82/101/82
f 82/101/82 81/100/81 91/119/91
f 92/120/92 90/118/90 89/117/89
f 89/117/89 91/119/91 92/120/92
f 11/124/11 10/121/10 93/122/93
f 93/122/93 94/123/94 11/124/11
f 94/123/94 93/122/93 66/78/66
f 66/78/66 65/77/65 94/123/94
f 28/125/28 94/123/94 65/77/65
f 65/77/65 30/76/30 28/125/28
f 14/126/14 11/124/11 94/123/94
f 94/123/94 28/125/28 14/126/14
f 96/128/96 58/68/58 55/65/55
f 55/65/55 95/127/95 96/128/96
f 95/127/95 55/65/55 54/64/54
f 54/64/54 53/129/53 95/127/95
f 97/131/97 95/127/95 53/129/53
f 53/129/53 52/130/52 97/131/97
f 98/132/98 96/128/96 95/127/95
f 95/127/95 97/131/97 98/132/98
f 84/134/84 77/113/77 86/110/86
f 86/110/86 99/133/99 84/134/84
f 99/133/99 86/110/86 85/109/85
f 85/109/85 100/135/100 99/133/99
f 47/137/47 99/133/99 100/135/100
f 100/135/100 48/136/48 47/137/47
f 46/138/46 84/134/84 99/133/99
f 99/133/99 47/137/47 46/138/46
f 102/142/102 18/139/18 17/140/17
f 17/140/17 101/141/101 102/142/102
f 101/141/101 17/140/17 16/143/16
f 16/143/16 33/144/33 101/141/101
f 61/71/61 101/141/101 33/144/33
f 33/144/33 32/72/32 61/71/61
f 60/70/60 102/142/102 101/141/101
f 101/141/101 61/71/61 60/70/60
f 6/6/6 5/5/5 90/145/90
f 90/145/90 103/146/103 6/6/6
f 103/146/103 90/145/90 92/147/92
f 92/147/92 104/148/104 103/146/103
f 34/150/34 103/146/103 104/148/104
f 104/148/104 36/149/36 34/150/34
f 7/7/7 6/6/6 103/146/103
f 103/146/103 34/150/34 7/7/7
f 106/152/106 66/78/66 93/122/93
f 93/122/93 105/151/105 106/152/106
f 105/151/105 93/122/93 10/121/10
f 10/121/10 107/153/107 105/151/105
f 91/119/91 105/151/105 107/153/107
f 107/153/107 92/120/92 91/119/91
f 81/100/81 106/152/106 105/151/105
f 105/151/105 91/119/91 81/100/81
f 109/155/109 23/23/23 20/20/20
f 20/20/20 108/154/108 109/155/109
f 108/154/108 20/20/20 19/19/19
f 19/19/19 110/156/110 108/154/108
f 71/86/71 108/154/108 110/156/110
f 110/156/110 72/87/72 71/86/71
f 40/85/40 109/155/109 108/154/108
f 108/154/108 71/86/71 40/85/40
f 112/158/112 85/109/85 88/112/88
f 88/112/88 111/157/111 112/158/112
f 111/157/111 88/112/88 38/43/38
f 38/43/38 113/159/113 111/157/111
f 59/69/59 111/157/111 113/159/113
f 113/159/113 60/70/60 59/69/59
f 58/68/58 112/158/112 111/157/111
f 111/157/111 59/69/59 58/68/58
f 110/156/110 19/19/19 63/74/63
f 63/74/63 114/160/114 110/156/110
f 114/160/114 63/74/63 66/78/66
f 66/78/66 106/152/106 114/160/114
f 80/99/80 114/160/114 106/152/106
f 106/152/106 81/100/81 80/99/80
f 72/87/72 110/156/110 114/160/114
f 114/160/114 80/99/80 72/87/72
f 112/158/112 58/68/58 96/128/96
f 96/128/96 115/161/115 112/158/112
f 115/161/115 96/128/96 98/132/98
f 98/132/98 116/162/116 115/161/115
f 100/135/100 115/161/115 116/162/116
f 116/162/116 48/136/48 100/135/100
f 85/109/85 112/158/112 115/161/115
f 115/161/115 100/135/100 85/109/85
f 109/164/109 40/46/40 43/49/43
f 43/49/43 117/163/117 109/164/109
f 117/163/117 43/49/43 48/54/48
f 48/54/48 116/165/116 117/163/117
f 118/167/118 117/163/117 116/165/116
f 116/165/116 98/166/98 118/167/118
f 23/168/23 109/164/109 117/163/117
f 117/163/117 118/167/118 23/168/23
f 107/170/107 10/10/10 13/13/13
f 13/13/13 119/169/119 107/170/107
f 119/169/119 13/13/13 18/18/18
f 18/18/18 120/171/120 119/169/119
f 104/148/104 119/169/119 120/171/120
f 120/171/120 36/149/36 104/148/104
f 92/147/92 107/170/107 119/169/119
f 119/169/119 104/148/104 92/147/92
f 120/173/120 18/139/18 102/142/102
f 102/142/102 121/172/121 120/173/120
f 121/172/121 102/142/102 60/70/60
f 60/70/60 113/159/113 121/172/121
f 37/42/37 121/172/121 113/159/113
f 113/159/113 38/43/38 37/42/37
f 36/41/36 120/173/120 121/172/121
f 121/172/121 37/42/37 36/41/36
f 51/60/51 25/59/25 24/174/24
f 24/174/24 122/175/122 51/60/51
f 122/175/122 24/174/24 23/168/23
f 23/168/23 118/167/118 122/175/122
f 97/176/97 122/175/122 118/167/118
f 118/167/118 98/166/98 97/176/97
f 52/61/52 51/60/51 122/175/122
f 122/175/122 97/176/97 52/61/52
